<?xml version="1.0" standalone="no"?><!DOCTYPE svg PUBLIC "-//W3C//DTD SVG 1.1//EN" "http://www.w3.org/Graphics/SVG/1.1/DTD/svg11.dtd"><svg t="1690533074583" class="icon" viewBox="0 0 1024 1024" version="1.1" xmlns="http://www.w3.org/2000/svg" p-id="4917" xmlns:xlink="http://www.w3.org/1999/xlink" width="200" height="200"><path d="M953.4 129.9c0-36.3-29.6-66-66-66H126.3c-30.8 0-56.9 21.3-64.1 50-2.1 6.5-3.3 13.4-3.3 20.6v761.1c0 30.6 21 56.6 49.5 64l804.1-3.4c18.5-8.1 32.6-24.5 37.6-44.4 2.1-6.5 3.3-13.4 3.3-20.6V129.9z m-822 776.8c38.4-42.7 286.1-76.3 295.8-150.6 2-15.1 2.9-45.9 2-60.5-22.1-18.6-40.4-45-44.6-52.1-4.9-8.4-15-32.1-22.6-61.5-12.7-1.5-24.3-25.1-32.8-51.2-8.4-25.7-3.3-48.7 7.6-55.8-11.8-39.4-10.4-77.3-1.3-120.5 3.5-16.6 10-43.6 36.4-64.9 5-24.2 18.7-48.9 51.8-65.6 80.3-40.5 184.4 44.1 219.7-8.8 41.1 47.6 18.5 91.2 28.3 112.9 21.7 47.8 14.3 108.4 5.4 145.6 13 4.5 19.9 29.1 10.7 57.1-8.5 26-20.1 49.7-32.8 51.2-7.7 29.4-17.7 53-22.6 61.5-3.9 6.7-20.2 30.3-40.4 48.5-0.7 8.6 0.1 44 2.7 64.1 9.7 74.3 256.1 109.1 295.8 150.6 6.6 6.9 12.5 17.6 17.5 29.4l-792.3 3.4c6-16.4 11.5-28.2 15.7-32.8z" fill="#E4E4E4" p-id="4918"></path></svg>